<svg xmlns="http://www.w3.org/2000/svg" viewBox="0 0 80 80" fill="none">
  <defs>
    <linearGradient id="ting-grad" x1="8" y1="4" x2="72" y2="76" gradientUnits="userSpaceOnUse">
      <stop stop-color="#3B8BEB"/>
      <stop offset="1" stop-color="#1A5FB4"/>
    </linearGradient>
  </defs>
  <rect width="80" height="80" rx="20" fill="url(#ting-grad)"/>
  <path d="M40 14c-1.2 0-2.2 1-2.2 2.2v3.6h-8.4c-1.2 0-2.2 1-2.2 2.2s1 2.2 2.2 2.2h8.4v22.8c0 1.2 1 2.2 2.2 2.2s2.2-1 2.2-2.2V24.2h8.4c1.2 0 2.2-1 2.2-2.2s-1-2.2-2.2-2.2H42.2v-3.6c0-1.2-1-2.2-2.2-2.2z" fill="white" opacity="0.25"/>
  <text x="40" y="54" text-anchor="middle" font-family="'Noto Sans SC', 'PingFang SC', sans-serif" font-size="34" font-weight="700" fill="white">婷</text>
</svg>
